<?xml version="1.0" encoding="utf-8"?>
<!-- Generator: Adobe Illustrator 16.0.0, SVG Export Plug-In . SVG Version: 6.00 Build 0)  -->
<!DOCTYPE svg PUBLIC "-//W3C//DTD SVG 1.1//EN" "http://www.w3.org/Graphics/SVG/1.1/DTD/svg11.dtd">
<svg version="1.1" id="Capa_1" xmlns="http://www.w3.org/2000/svg" xmlns:xlink="http://www.w3.org/1999/xlink" x="0px" y="0px"
	 width="1280px" height="800px" viewBox="1300 0 1280 800" enable-background="new 1300 0 1280 800" xml:space="preserve">
<g>
	<path d="M1832.924,673.537c-82.932-45.945-149.164-119.143-186.489-206.106c-1.952-4.55-7.22-6.656-11.77-4.704
		c-4.55,1.959-6.655,7.226-4.698,11.777c38.887,90.592,107.873,166.848,194.266,214.72c1.377,0.762,2.867,1.127,4.334,1.127
		c3.154,0,6.215-1.664,7.852-4.621C1838.812,681.396,1837.25,675.938,1832.924,673.537z"/>
	<path d="M1969.909,686.229c-176.044-31.712-308.601-178.451-322.354-356.861c-0.384-4.935-4.678-8.627-9.625-8.25
		c-4.936,0.384-8.635,4.691-8.25,9.625c3.552,46.054,14.713,90.785,33.171,132.931c17.933,40.942,42.323,78.549,72.505,111.765
		c30.062,33.094,65.025,60.915,103.924,82.7c39.764,22.266,82.65,37.658,127.456,45.729c0.544,0.096,1.068,0.141,1.6,0.141
		c4.25,0,8.032-3.04,8.812-7.373C1978.019,691.758,1974.78,687.099,1969.909,686.229z"/>
	<path d="M2059.305,657.499c-6.381,0.333-12.812,0.499-19.123,0.499c-198.137,0-359.34-161.203-359.34-359.338
		c0-18.407,1.407-36.896,4.179-54.963c0.749-4.89-2.611-9.466-7.501-10.214c-4.89-0.749-9.465,2.604-10.221,7.501
		c-2.906,18.957-4.385,38.368-4.385,57.677c0,50.931,9.979,100.333,29.652,146.85c19.002,44.93,46.201,85.27,80.844,119.919
		c34.645,34.637,74.99,61.843,119.918,80.845c46.516,19.674,95.922,29.651,146.847,29.651c6.624,0,13.37-0.173,20.064-0.525
		c4.935-0.262,8.742-4.479,8.479-9.42C2068.47,661.038,2064.265,657.249,2059.305,657.499z"/>
	<path d="M2123.074,612.859c-26.925,7.078-54.81,10.675-82.893,10.675c-179.135,0-324.869-145.734-324.869-324.874
		c0-39.245,6.924-77.613,20.582-114.042c1.734-4.633-0.609-9.805-5.242-11.539c-4.641-1.734-9.805,0.608-11.539,5.242
		c-14.412,38.445-21.729,78.931-21.729,120.333c0,46.272,9.068,91.168,26.945,133.442c17.266,40.821,41.982,77.48,73.459,108.949
		c31.48,31.481,68.141,56.191,108.959,73.465c42.266,17.876,87.168,26.938,133.434,26.938c29.619,0,59.046-3.789,87.449-11.271
		c4.787-1.255,7.648-6.157,6.394-10.944C2132.764,614.459,2127.861,611.599,2123.074,612.859z"/>
	<path d="M2168.565,559.188c-40.141,19.821-83.334,29.869-128.391,29.869c-160.128,0-290.399-130.267-290.399-290.397
		c0-54.631,15.271-107.872,44.16-153.978c2.631-4.192,1.357-9.728-2.836-12.352c-4.191-2.624-9.727-1.356-12.352,2.835
		c-30.682,48.954-46.898,105.491-46.898,163.495c0,82.355,32.07,159.785,90.303,218.02c58.234,58.233,135.661,90.304,218.017,90.304
		c47.827,0,93.695-10.675,136.326-31.73c4.436-2.189,6.266-7.565,4.07-12C2178.37,558.817,2173.007,556.993,2168.565,559.188z"/>
	<path d="M2198.3,499.905c-45.466,35.776-100.135,54.682-158.118,54.682c-141.119,0-255.924-114.805-255.924-255.927
		c0-66.56,25.441-129.62,71.629-177.549c3.438-3.565,3.328-9.242-0.236-12.672c-3.564-3.437-9.242-3.334-12.672,0.237
		c-49.428,51.29-76.646,118.765-76.646,189.991c0,73.146,28.486,141.921,80.211,193.642
		c51.725,51.725,120.499,80.211,193.639,80.211c31.245,0,61.882-5.216,91.078-15.52c28.218-9.946,54.503-24.41,78.125-42.995
		c3.885-3.06,4.557-8.698,1.491-12.589C2207.823,497.524,2202.185,496.853,2198.3,499.905z"/>
	<path d="M2225.986,435.225c-3.866-3.084-9.504-2.451-12.595,1.415c-42.317,53.052-105.453,83.483-173.21,83.483
		c-122.111,0-221.453-99.351-221.453-221.463c0-75.533,37.939-145.126,101.486-186.17c4.152-2.682,5.35-8.23,2.668-12.391
		c-2.682-4.16-8.236-5.35-12.396-2.668c-68.68,44.358-109.684,119.584-109.684,201.229c0,63.942,24.896,124.059,70.111,169.27
		c45.217,45.211,105.331,70.107,169.268,70.107c73.248,0,141.479-32.884,187.226-90.224
		C2230.492,443.941,2229.858,438.31,2225.986,435.225z"/>
	<path d="M2225.167,364.01c-4.589-1.862-9.811,0.346-11.674,4.935c-28.78,70.895-96.812,116.702-173.312,116.702
		c-103.104,0-186.982-83.889-186.982-186.986c0-82.599,55.328-156.416,134.534-179.514c4.749-1.389,7.481-6.362,6.1-11.117
		c-1.389-4.749-6.355-7.481-11.117-6.093c-41.696,12.154-79.218,37.984-105.663,72.717c-27.334,35.892-41.779,78.778-41.779,124.007
		c0,54.732,21.318,106.188,60.012,144.892c38.707,38.709,90.157,60.021,144.896,60.021c41.581,0,81.612-12.39,115.77-35.828
		c33.351-22.881,58.995-54.715,74.156-92.06C2231.964,371.102,2229.749,365.873,2225.167,364.01z"/>
	<path d="M1869.744,298.66c0,93.978,76.453,170.441,170.438,170.441c93.978,0,170.438-76.464,170.438-170.441
		c0-3.091-0.096-6.33-0.275-9.62c-0.275-4.94-4.525-8.723-9.453-8.454c-4.94,0.275-8.723,4.505-8.447,9.446
		c0.159,2.963,0.242,5.869,0.242,8.627c0,84.096-68.402,152.509-152.505,152.509c-84.097,0-152.512-68.413-152.512-152.509
		c0-84.09,68.415-152.512,152.512-152.512c7.942,0,15.942,0.621,23.789,1.85c4.896,0.774,9.472-2.579,10.239-7.469
		c0.769-4.89-2.579-9.472-7.462-10.24c-8.755-1.37-17.689-2.067-26.561-2.067C1946.197,128.228,1869.744,204.682,1869.744,298.66z"
		/>
	<path d="M1904.221,298.66c0,74.969,60.991,135.97,135.961,135.97s135.962-61,135.962-135.97
		c0-74.97-60.992-135.962-135.962-135.962S1904.221,223.69,1904.221,298.66z M2158.217,298.66
		c0,65.088-52.947,118.036-118.035,118.036s-118.035-52.948-118.035-118.036c0-65.082,52.947-118.036,118.035-118.036
		S2158.217,233.578,2158.217,298.66z"/>
	<path d="M1938.684,298.66c0,55.961,45.53,101.484,101.491,101.484c55.969,0,101.491-45.523,101.491-101.484
		c0-55.962-45.522-101.491-101.491-101.491C1984.22,197.169,1938.684,242.698,1938.684,298.66z M2123.746,298.66
		c0,46.08-37.484,83.571-83.571,83.571c-46.086,0-83.564-37.491-83.564-83.571c0-46.08,37.479-83.565,83.564-83.565
		C2086.262,215.095,2123.746,252.58,2123.746,298.66z"/>
	<path d="M1973.154,298.66c0,36.953,30.073,67.021,67.027,67.021c36.953,0,67.021-30.067,67.021-67.021
		c0-36.954-30.061-67.021-67.021-67.021C2003.228,231.639,1973.154,261.706,1973.154,298.66z M2089.276,298.66
		c0,27.072-22.023,49.094-49.095,49.094c-27.072,0-49.095-22.022-49.095-49.094c0-27.066,22.016-49.095,49.095-49.095
		C2067.247,249.565,2089.276,271.594,2089.276,298.66z"/>
	<path d="M2007.631,298.66c0,17.945,14.599,32.55,32.551,32.55s32.55-14.605,32.55-32.55c0-17.946-14.598-32.544-32.55-32.544
		S2007.631,280.714,2007.631,298.66z M2054.806,298.66c0,8.064-6.561,14.624-14.624,14.624c-8.064,0-14.624-6.56-14.624-14.624
		c0-8.064,6.56-14.624,14.624-14.624C2048.245,284.036,2054.806,290.596,2054.806,298.66z"/>
</g>
<g>
	<path fill="#FFFFFF" d="M2165.746,298.144c0,67.225-55.627,121.721-124.238,121.721c-68.62,0-124.248-54.497-124.248-121.721
		c0-67.231,55.628-121.734,124.248-121.734C2110.119,176.41,2165.746,230.913,2165.746,298.144z"/>
	<path fill="#1D1D1B" d="M2041.508,428.365c-73.197,0-132.748-58.417-132.748-130.221c0-71.811,59.551-130.234,132.748-130.234
		c73.192,0,132.738,58.423,132.738,130.234C2174.246,369.948,2114.7,428.365,2041.508,428.365z M2041.508,184.91
		c-63.823,0-115.748,50.796-115.748,113.234c0,62.43,51.925,113.221,115.748,113.221c63.818,0,115.738-50.791,115.738-113.221
		C2157.246,235.707,2105.326,184.91,2041.508,184.91z"/>
</g>
<path fill="#1D1D1B" d="M2118.198,313.351l-20.017-34.271l-38.287,18.381l7.735,15.471l11.024-5.29
	c-5.465,18.714-21.979,32.347-41.451,32.347c-23.886,0-43.322-20.56-43.322-45.844c0-25.298,19.437-45.851,43.322-45.851
	c11.225,0,21.834,4.5,29.923,12.669l13.689-13.007c-11.714-11.816-27.2-18.354-43.612-18.354c-34.398,0-62.401,28.945-62.401,64.543
	c0,35.584,28.003,64.536,62.401,64.536c28.414,0,52.432-19.723,59.966-46.61l5.737,9.835L2118.198,313.351z"/>
<g>
	<path d="M2119.932,161.253c-3.308,1.021-6.2,0.74-9.001-0.74c-7.596-4.015-10.019-14.633-5.689-22.823
		c4.396-8.317,14.243-11.745,22.391-7.438c5.305,2.804,8.16,7.57,8.023,12.656l-7.283,1.145c0.183-3.324-1.511-6.282-4.227-7.718
		c-4.244-2.243-9.26,0.263-11.952,5.355c-2.759,5.219-1.722,10.654,2.606,12.941c2.461,1.301,5.445,1.304,8.698-0.125l0.538-1.018
		l-5.813-3.073l2.67-5.05l11.584,6.124l-8.321,15.744l-5.771-3.051L2119.932,161.253z"/>
	<path d="M2127.075,169.418l21.699-26.271l11.841,9.78c4.959,4.095,4.856,11.605,1.25,15.971c-2.659,3.219-6.77,4.804-10.589,4.077
		l-2.037,14.75l-6.846-5.654l1.708-12.844l-3.959-3.27l-6.999,8.474L2127.075,169.418z M2144.513,160.666l5.551,4.584
		c1.442,1.192,3.88,0.653,5.622-1.456c1.772-2.146,1.491-4.744,0.122-5.875l-5.365-4.432L2144.513,160.666z"/>
	<path d="M2150.709,189.58l26.478-21.451l9.668,11.934c4.048,4.997,2.46,12.338-1.941,15.903c-3.244,2.628-7.587,3.368-11.187,1.898
		l-4.921,14.055l-5.589-6.899l4.22-12.251l-3.233-3.99l-8.539,6.918L2150.709,189.58z M2169.536,184.457l4.532,5.594
		c1.178,1.454,3.674,1.409,5.8-0.313c2.163-1.752,2.401-4.355,1.284-5.735l-4.381-5.407L2169.536,184.457z"/>
	<path d="M2169.881,214.035l30.226-15.742l7.095,13.623c2.972,5.705-0.05,12.582-5.073,15.198
		c-3.704,1.929-8.107,1.787-11.342-0.371l-7.625,12.792l-4.102-7.876l6.578-11.165l-2.372-4.556l-9.749,5.077L2169.881,214.035z
		 M2189.354,212.769l3.325,6.386c0.865,1.66,3.32,2.113,5.747,0.85c2.469-1.286,3.222-3.789,2.401-5.364l-3.215-6.173
		L2189.354,212.769z"/>
</g>
</svg>
