<?xml version="1.0" encoding="UTF-8" standalone="no"?>
<!-- Created with Inkscape (http://www.inkscape.org/) -->

<svg
   xmlns:dc="http://purl.org/dc/elements/1.1/"
   xmlns:cc="http://creativecommons.org/ns#"
   xmlns:rdf="http://www.w3.org/1999/02/22-rdf-syntax-ns#"
   xmlns:svg="http://www.w3.org/2000/svg"
   xmlns="http://www.w3.org/2000/svg"
   xmlns:sodipodi="http://sodipodi.sourceforge.net/DTD/sodipodi-0.dtd"
   xmlns:inkscape="http://www.inkscape.org/namespaces/inkscape"
   id="svg2"
   version="1.1"
   inkscape:version="0.91 r"
   xml:space="preserve"
   width="293.34875"
   height="206.96466"
   viewBox="0 0 293.34876 206.96465"
   sodipodi:docname="agreement_3.svg"><metadata
     id="metadata8"><rdf:RDF><cc:Work
         rdf:about=""><dc:format>image/svg+xml</dc:format><dc:type
           rdf:resource="http://purl.org/dc/dcmitype/StillImage" /><dc:title /></cc:Work></rdf:RDF></metadata><defs
     id="defs6"><clipPath
       clipPathUnits="userSpaceOnUse"
       id="clipPath288-3"><path
         d="m 0,0 595.276,0 0,841.89 L 0,841.89 0,0 Z"
         id="path290-6"
         inkscape:connector-curvature="0" /></clipPath></defs><sodipodi:namedview
     pagecolor="#ffffff"
     bordercolor="#666666"
     borderopacity="1"
     objecttolerance="10"
     gridtolerance="10"
     guidetolerance="10"
     inkscape:pageopacity="0"
     inkscape:pageshadow="2"
     inkscape:window-width="1180"
     inkscape:window-height="661"
     id="namedview4"
     showgrid="false"
     inkscape:zoom="3.2871252"
     inkscape:cx="194.83281"
     inkscape:cy="75.734706"
     inkscape:window-x="376"
     inkscape:window-y="128"
     inkscape:window-maximized="0"
     inkscape:current-layer="g10"
     inkscape:snap-global="false"
     fit-margin-top="0"
     fit-margin-left="0"
     fit-margin-right="0"
     fit-margin-bottom="0" /><g
     id="g10"
     inkscape:groupmode="layer"
     inkscape:label="protocolos_GRRR"
     transform="matrix(1.25,0,0,-1.25,720.95814,793.5809)"><text
       id="text36"
       style="font-variant:normal;font-weight:normal;font-size:18.56498528px;font-family:'DejaVu Sans';-inkscape-font-specification:DejaVuSans;writing-mode:lr-tb;fill:#ffffff;fill-opacity:1;fill-rule:nonzero;stroke:none"
       transform="scale(1,-1)"
       x="-462.87753"
       y="-548.56915"><tspan
         id="tspan38"
         y="-548.56915"
         x="-462.87753">G</tspan></text>
<g
       transform="matrix(1,0,0,-1,-654.57151,1190.5511)"
       id="g40"><path
         inkscape:connector-curvature="0"
         id="path42"
         style="fill:none;stroke:#000000;stroke-width:0.406093;stroke-linecap:butt;stroke-linejoin:miter;stroke-miterlimit:4;stroke-dasharray:none;stroke-opacity:1"
         d="m 266.582,645.094 -62.77464,-7.71836"
         sodipodi:nodetypes="cc" /></g><g
       transform="matrix(1,0,0,-1,-654.57151,1190.5511)"
       id="g44"><path
         inkscape:connector-curvature="0"
         id="path46"
         style="fill:none;stroke:#000000;stroke-width:0.50015998;stroke-linecap:butt;stroke-linejoin:miter;stroke-miterlimit:4;stroke-dasharray:none;stroke-opacity:1"
         d="M 202.29432,637.77471 179.508,685.52"
         sodipodi:nodetypes="cc" /></g><g
       transform="matrix(1,0,0,-1,-654.57151,1190.5511)"
       id="g48"><path
         inkscape:connector-curvature="0"
         id="path50"
         style="fill:none;stroke:#000000;stroke-width:0.51292598;stroke-linecap:butt;stroke-linejoin:miter;stroke-miterlimit:4;stroke-dasharray:none;stroke-opacity:1"
         d="M 202.35526,636.65628 117.113,659.152"
         sodipodi:nodetypes="cc" /></g><g
       transform="matrix(1,0,0,-1,-654.57151,1190.5511)"
       id="g52"><path
         inkscape:connector-curvature="0"
         id="path54"
         style="fill:none;stroke:#000000;stroke-width:0.40238401;stroke-linecap:butt;stroke-linejoin:miter;stroke-miterlimit:4;stroke-dasharray:none;stroke-opacity:1"
         d="M 212.32627,649.86478 245.395,686.977"
         sodipodi:nodetypes="cc" /></g><g
       transform="matrix(1,0,0,-1,-654.57151,1190.5511)"
       id="g56"
       style="stroke-width:1.60000002;stroke-miterlimit:4;stroke-dasharray:none"><path
         inkscape:connector-curvature="0"
         id="path58"
         style="fill:#000000;fill-opacity:1;fill-rule:evenodd;stroke:#000000;stroke-width:1.60000002;stroke-linecap:butt;stroke-linejoin:miter;stroke-miterlimit:4;stroke-dasharray:none;stroke-dashoffset:0;stroke-opacity:1"
         d="m 163.488,601.914 19.055,17.973" /></g><g
       transform="matrix(1,0,0,-1,-654.57151,1190.5511)"
       id="g994"><path
         inkscape:connector-curvature="0"
         id="path996"
         style="fill:none;stroke:#000000;stroke-width:0.74880898;stroke-linecap:butt;stroke-linejoin:miter;stroke-miterlimit:4;stroke-dasharray:none;stroke-opacity:1"
         d="m 179.676,615.25 2.59,3.809" /></g><g
       transform="matrix(1,0,0,-1,-654.57151,1190.5511)"
       id="g998"><path
         inkscape:connector-curvature="0"
         id="path1000"
         style="fill:none;stroke:#000000;stroke-width:0.74880898;stroke-linecap:butt;stroke-linejoin:miter;stroke-miterlimit:4;stroke-dasharray:none;stroke-opacity:1"
         d="m 177.688,617.484 4.085,2.129" /></g><g
       id="g5700"
       transform="matrix(0.7814925,0,0,0.7814925,-134.64716,81.20432)"><path
         inkscape:connector-curvature="0"
         id="path5639"
         d="m -297.333,600.3023 a 2.9813285,2.9813285 0 0 1 -2.98125,-2.98125 2.9813285,2.9813285 0 0 1 2.98125,-2.98125 2.9813285,2.9813285 0 0 1 2.98124,2.98125 2.9813285,2.9813285 0 0 1 -2.98124,2.98125 z m -12.28125,-2.19375 a 2.5370302,2.5370302 0 0 1 -2.53751,-2.5375 2.5370302,2.5370302 0 0 1 2.53751,-2.5375 2.5370302,2.5370302 0 0 1 2.53749,2.5375 2.5370302,2.5370302 0 0 1 -2.53749,2.5375 z m 5.71093,-2.55625 a 2.0196104,2.0196104 0 0 1 -2.02031,-2.01875 2.0196104,2.0196104 0 0 1 2.02031,-2.02032 2.0196104,2.0196104 0 0 1 2.01876,2.02032 2.0196104,2.0196104 0 0 1 -2.01876,2.01875 z m -11.49062,-1.71875 a 1.6714779,1.6714779 0 0 1 -1.67187,-1.67188 1.6714779,1.6714779 0 0 1 1.67187,-1.67187 1.6714779,1.6714779 0 0 1 1.67031,1.67187 1.6714779,1.6714779 0 0 1 -1.67031,1.67188 z m 18.0625,-0.22344 a 5.6584406,6.5710917 0 0 1 -4.8,-3.09688 3.8331389,4.4513867 0 0 1 -1.77188,0.50625 3.8331389,4.4513867 0 0 1 -1.99062,-0.65468 4.815181,5.5918226 0 0 1 -3.72031,2.04843 4.815181,5.5918226 0 0 1 -4.18438,-2.8375 3.1723976,3.6840743 0 0 1 -1.59531,0.50469 3.1723976,3.6840743 0 0 1 -3.17344,-3.68281 3.1723976,3.6840743 0 0 1 0.0828,-0.81875 l 6.17968,0 7.38125,0 4.75313,0 8.35,0 a 5.6584406,6.5710917 0 0 1 0.14687,1.46094 5.6584406,6.5710917 0 0 1 -5.65781,6.57031 z"
         style="opacity:1;fill:#000000;fill-opacity:1;stroke:none;stroke-width:1.60000002;stroke-miterlimit:4;stroke-dasharray:none;stroke-dashoffset:0;stroke-opacity:1" /><circle
         transform="scale(1,-1)"
         r="18.827097"
         cy="-592.94055"
         cx="-305.12051"
         id="path5661"
         style="opacity:1;fill:none;fill-opacity:1;stroke:#000000;stroke-width:1.20000005;stroke-miterlimit:4;stroke-dasharray:none;stroke-dashoffset:0;stroke-opacity:1" /><circle
         style="opacity:1;fill:none;fill-opacity:1;stroke:#000000;stroke-width:2.03060007;stroke-miterlimit:4;stroke-dasharray:none;stroke-dashoffset:0;stroke-opacity:1"
         id="circle5663"
         cx="-305.12051"
         cy="-592.94055"
         r="21.8244"
         transform="scale(1,-1)" /></g><g
       id="g5695"
       transform="translate(-275.69015,14.111481)"><path
         inkscape:connector-curvature="0"
         id="path5680"
         d="m -247.64631,603.81546 -0.15937,-0.76563 c -0.0877,-0.42115 -0.56007,-4.50721 -1.05,-9.07969 -0.48992,-4.57246 -1.13434,-10.50636 -1.43126,-13.1875 -0.5417,-4.8915 -0.52241,-5.52777 0.17657,-5.80937 0.15179,-0.0612 6.76626,-0.11813 14.69843,-0.12813 16.08934,-0.0193 15.22344,-0.10397 15.22344,1.47032 0,1.36421 -1.53889,14.79596 -1.75313,15.30312 -0.11435,0.27074 -0.38863,0.49219 -0.61093,0.49219 -0.2223,0 -1.62847,-0.83773 -3.12343,-1.8625 l -2.7172,-1.86406 -0.0656,1.57969 c -0.066,1.6004 -0.28094,2.14687 -0.84687,2.14687 -0.17174,0 -1.53159,-0.83659 -3.02031,-1.85937 -1.48872,-1.0228 -2.75875,-1.85938 -2.82344,-1.85938 -0.0647,0 -0.14636,0.81018 -0.18125,1.80156 -0.0546,1.54933 -0.12037,1.81339 -0.46719,1.87969 -0.23199,0.0444 -1.45128,-0.62 -2.86875,-1.56406 l -2.46563,-1.64219 -0.13437,1.67656 c -0.0741,0.92218 -0.24657,3.94183 -0.38281,6.70938 -0.13625,2.76755 -0.31468,5.37572 -0.39688,5.79687 l -0.15,0.76563 -2.725,0 -2.725,0 z m 13.84844,-0.76563 c -0.48114,0 -1.97732,-1.48363 -1.85781,-1.84219 0.0402,-0.1205 0.5584,-0.4903 1.15156,-0.82187 0.59315,-0.33157 1.17654,-0.60637 1.29687,-0.60937 0.12034,-0.003 0.4522,0.33645 0.73594,0.75312 l 0.51563,0.75625 -0.69844,0.88281 c -0.40486,0.51118 -0.88615,0.88125 -1.14375,0.88125 z m 2.43437,0 c -0.59291,0 -1.07811,-0.10053 -1.07813,-0.22343 0,-0.12292 0.26609,-0.62522 0.59064,-1.11563 l 0.59062,-0.89063 -0.53282,-0.40156 c -0.6132,-0.46253 -0.51765,-0.63345 0.48907,-0.87187 1.55038,-0.36718 1.69107,-0.30543 2.26562,0.99375 0.6528,1.47597 0.66706,1.70531 0.0891,1.52187 -0.32424,-0.10291 -0.56837,0.0138 -0.89063,0.42344 -0.37011,0.47054 -0.62513,0.56406 -1.52344,0.56406 z m -4.44375,-2.84375 c -1.56888,0 -1.86844,-0.18585 -1.23125,-0.7625 0.41876,-0.37895 0.41861,-0.39432 -0.0203,-1.25468 -0.24424,-0.47872 -0.39136,-1.00775 -0.32656,-1.17657 0.17749,-0.46252 2.88182,-0.43081 3.06094,0.0359 0.0875,0.22814 0.27879,0.29719 0.57031,0.20469 0.59332,-0.18832 0.56923,0.23755 -0.0969,1.74375 l -0.53438,1.20937 -1.42188,0 z m 7.48282,-0.65156 -1.07344,-0.58438 c -0.59053,-0.3214 -1.07344,-0.67634 -1.07344,-0.78906 0,-0.11272 0.17023,-0.49539 0.37968,-0.85 0.35754,-0.6052 0.45494,-0.63978 1.58438,-0.57968 1.45887,0.0776 1.56622,0.32862 0.75782,1.775 l -0.575,1.02812 z m -2.46251,-2.54375 c -0.11474,10e-4 -0.36721,-0.24334 -0.90469,-0.82187 -0.54357,-0.58512 -0.95903,-1.14307 -0.92343,-1.23907 0.0356,-0.096 0.45931,-0.64418 0.94063,-1.21875 0.77432,-0.92434 0.88184,-0.99032 0.94375,-0.56718 0.0466,0.31862 0.22516,0.47812 0.53281,0.47812 0.50167,0 2.35156,1.83166 2.35156,2.32812 0,0.2207 -0.36815,0.29688 -1.42188,0.29688 -1.32704,0 -1.42212,0.0344 -1.42812,0.49375 -0.002,0.16061 -0.0218,0.24913 -0.0906,0.25 z m -5.5,-0.78281 c -0.32713,-0.0127 -0.52968,-0.0399 -0.52968,-0.0766 -1e-5,-0.35118 1.40886,-2.12448 1.82499,-2.29688 l 0,0.002 c 0.25943,-0.10751 0.76714,-0.1753 1.12813,-0.15 0.64413,0.0451 0.65625,0.0675 0.65625,1.24844 l 0,1.20469 -1.80469,0.0625 c -0.49635,0.0175 -0.94785,0.0189 -1.275,0.006 z m -8.06874,-14.65 5.34062,0 0,-2.38438 -5.34062,0 0,2.38438 z m 6.60937,0 5.34219,0 0,-2.38438 -5.34219,0 0,2.38438 z m 6.61094,0 5.34218,0 0,-2.38438 -5.34218,0 0,2.38438 z"
         style="fill:#000000" /><circle
         style="opacity:1;fill:none;fill-opacity:1;stroke:#000000;stroke-width:1.59330893;stroke-miterlimit:4;stroke-dasharray:none;stroke-dashoffset:0;stroke-opacity:1"
         id="circle5682"
         cx="-235.42357"
         cy="-589.32666"
         r="24.997818"
         transform="scale(1,-1)" /><circle
         transform="scale(1,-1)"
         r="28.500118"
         cy="-589.32666"
         cx="-235.42357"
         id="circle5693"
         style="opacity:1;fill:none;fill-opacity:1;stroke:#ffe000;stroke-width:1.81653833;stroke-miterlimit:4;stroke-dasharray:none;stroke-dashoffset:0;stroke-opacity:1" /></g><g
       transform="matrix(0.7814925,0,0,0.7814925,-162.52594,28.544403)"
       id="g5705"><path
         style="opacity:1;fill:#000000;fill-opacity:1;stroke:none;stroke-width:1.60000002;stroke-miterlimit:4;stroke-dasharray:none;stroke-dashoffset:0;stroke-opacity:1"
         d="m -297.333,600.3023 a 2.9813285,2.9813285 0 0 1 -2.98125,-2.98125 2.9813285,2.9813285 0 0 1 2.98125,-2.98125 2.9813285,2.9813285 0 0 1 2.98124,2.98125 2.9813285,2.9813285 0 0 1 -2.98124,2.98125 z m -12.28125,-2.19375 a 2.5370302,2.5370302 0 0 1 -2.53751,-2.5375 2.5370302,2.5370302 0 0 1 2.53751,-2.5375 2.5370302,2.5370302 0 0 1 2.53749,2.5375 2.5370302,2.5370302 0 0 1 -2.53749,2.5375 z m 5.71093,-2.55625 a 2.0196104,2.0196104 0 0 1 -2.02031,-2.01875 2.0196104,2.0196104 0 0 1 2.02031,-2.02032 2.0196104,2.0196104 0 0 1 2.01876,2.02032 2.0196104,2.0196104 0 0 1 -2.01876,2.01875 z m -11.49062,-1.71875 a 1.6714779,1.6714779 0 0 1 -1.67187,-1.67188 1.6714779,1.6714779 0 0 1 1.67187,-1.67187 1.6714779,1.6714779 0 0 1 1.67031,1.67187 1.6714779,1.6714779 0 0 1 -1.67031,1.67188 z m 18.0625,-0.22344 a 5.6584406,6.5710917 0 0 1 -4.8,-3.09688 3.8331389,4.4513867 0 0 1 -1.77188,0.50625 3.8331389,4.4513867 0 0 1 -1.99062,-0.65468 4.815181,5.5918226 0 0 1 -3.72031,2.04843 4.815181,5.5918226 0 0 1 -4.18438,-2.8375 3.1723976,3.6840743 0 0 1 -1.59531,0.50469 3.1723976,3.6840743 0 0 1 -3.17344,-3.68281 3.1723976,3.6840743 0 0 1 0.0828,-0.81875 l 6.17968,0 7.38125,0 4.75313,0 8.35,0 a 5.6584406,6.5710917 0 0 1 0.14687,1.46094 5.6584406,6.5710917 0 0 1 -5.65781,6.57031 z"
         id="path5707"
         inkscape:connector-curvature="0" /><circle
         style="opacity:1;fill:none;fill-opacity:1;stroke:#000000;stroke-width:1.20000005;stroke-miterlimit:4;stroke-dasharray:none;stroke-dashoffset:0;stroke-opacity:1"
         id="circle5709"
         cx="-305.12051"
         cy="-592.94055"
         r="18.827097"
         transform="scale(1,-1)" /><circle
         transform="scale(1,-1)"
         r="21.8244"
         cy="-592.94055"
         cx="-305.12051"
         id="circle5711"
         style="opacity:1;fill:none;fill-opacity:1;stroke:#000000;stroke-width:2.03060007;stroke-miterlimit:4;stroke-dasharray:none;stroke-dashoffset:0;stroke-opacity:1" /></g><g
       id="g5713"
       transform="matrix(0.7814925,0,0,0.7814925,-239.27863,27.167673)"><path
         inkscape:connector-curvature="0"
         id="path5715"
         d="m -297.333,600.3023 a 2.9813285,2.9813285 0 0 1 -2.98125,-2.98125 2.9813285,2.9813285 0 0 1 2.98125,-2.98125 2.9813285,2.9813285 0 0 1 2.98124,2.98125 2.9813285,2.9813285 0 0 1 -2.98124,2.98125 z m -12.28125,-2.19375 a 2.5370302,2.5370302 0 0 1 -2.53751,-2.5375 2.5370302,2.5370302 0 0 1 2.53751,-2.5375 2.5370302,2.5370302 0 0 1 2.53749,2.5375 2.5370302,2.5370302 0 0 1 -2.53749,2.5375 z m 5.71093,-2.55625 a 2.0196104,2.0196104 0 0 1 -2.02031,-2.01875 2.0196104,2.0196104 0 0 1 2.02031,-2.02032 2.0196104,2.0196104 0 0 1 2.01876,2.02032 2.0196104,2.0196104 0 0 1 -2.01876,2.01875 z m -11.49062,-1.71875 a 1.6714779,1.6714779 0 0 1 -1.67187,-1.67188 1.6714779,1.6714779 0 0 1 1.67187,-1.67187 1.6714779,1.6714779 0 0 1 1.67031,1.67187 1.6714779,1.6714779 0 0 1 -1.67031,1.67188 z m 18.0625,-0.22344 a 5.6584406,6.5710917 0 0 1 -4.8,-3.09688 3.8331389,4.4513867 0 0 1 -1.77188,0.50625 3.8331389,4.4513867 0 0 1 -1.99062,-0.65468 4.815181,5.5918226 0 0 1 -3.72031,2.04843 4.815181,5.5918226 0 0 1 -4.18438,-2.8375 3.1723976,3.6840743 0 0 1 -1.59531,0.50469 3.1723976,3.6840743 0 0 1 -3.17344,-3.68281 3.1723976,3.6840743 0 0 1 0.0828,-0.81875 l 6.17968,0 7.38125,0 4.75313,0 8.35,0 a 5.6584406,6.5710917 0 0 1 0.14687,1.46094 5.6584406,6.5710917 0 0 1 -5.65781,6.57031 z"
         style="opacity:1;fill:#000000;fill-opacity:1;stroke:none;stroke-width:1.60000002;stroke-miterlimit:4;stroke-dasharray:none;stroke-dashoffset:0;stroke-opacity:1" /><circle
         transform="scale(1,-1)"
         r="18.827097"
         cy="-592.94055"
         cx="-305.12051"
         id="circle5717"
         style="opacity:1;fill:none;fill-opacity:1;stroke:#000000;stroke-width:1.20000005;stroke-miterlimit:4;stroke-dasharray:none;stroke-dashoffset:0;stroke-opacity:1" /><circle
         style="opacity:1;fill:none;fill-opacity:1;stroke:#000000;stroke-width:2.03060007;stroke-miterlimit:4;stroke-dasharray:none;stroke-dashoffset:0;stroke-opacity:1"
         id="circle5719"
         cx="-305.12051"
         cy="-592.94055"
         r="21.8244"
         transform="scale(1,-1)" /></g><g
       transform="matrix(0.7814925,0,0,0.7814925,-313.27786,63.306832)"
       id="g5721"><path
         style="opacity:1;fill:#000000;fill-opacity:1;stroke:none;stroke-width:1.60000002;stroke-miterlimit:4;stroke-dasharray:none;stroke-dashoffset:0;stroke-opacity:1"
         d="m -297.333,600.3023 a 2.9813285,2.9813285 0 0 1 -2.98125,-2.98125 2.9813285,2.9813285 0 0 1 2.98125,-2.98125 2.9813285,2.9813285 0 0 1 2.98124,2.98125 2.9813285,2.9813285 0 0 1 -2.98124,2.98125 z m -12.28125,-2.19375 a 2.5370302,2.5370302 0 0 1 -2.53751,-2.5375 2.5370302,2.5370302 0 0 1 2.53751,-2.5375 2.5370302,2.5370302 0 0 1 2.53749,2.5375 2.5370302,2.5370302 0 0 1 -2.53749,2.5375 z m 5.71093,-2.55625 a 2.0196104,2.0196104 0 0 1 -2.02031,-2.01875 2.0196104,2.0196104 0 0 1 2.02031,-2.02032 2.0196104,2.0196104 0 0 1 2.01876,2.02032 2.0196104,2.0196104 0 0 1 -2.01876,2.01875 z m -11.49062,-1.71875 a 1.6714779,1.6714779 0 0 1 -1.67187,-1.67188 1.6714779,1.6714779 0 0 1 1.67187,-1.67187 1.6714779,1.6714779 0 0 1 1.67031,1.67187 1.6714779,1.6714779 0 0 1 -1.67031,1.67188 z m 18.0625,-0.22344 a 5.6584406,6.5710917 0 0 1 -4.8,-3.09688 3.8331389,4.4513867 0 0 1 -1.77188,0.50625 3.8331389,4.4513867 0 0 1 -1.99062,-0.65468 4.815181,5.5918226 0 0 1 -3.72031,2.04843 4.815181,5.5918226 0 0 1 -4.18438,-2.8375 3.1723976,3.6840743 0 0 1 -1.59531,0.50469 3.1723976,3.6840743 0 0 1 -3.17344,-3.68281 3.1723976,3.6840743 0 0 1 0.0828,-0.81875 l 6.17968,0 7.38125,0 4.75313,0 8.35,0 a 5.6584406,6.5710917 0 0 1 0.14687,1.46094 5.6584406,6.5710917 0 0 1 -5.65781,6.57031 z"
         id="path5723"
         inkscape:connector-curvature="0" /><circle
         style="opacity:1;fill:none;fill-opacity:1;stroke:#000000;stroke-width:1.20000005;stroke-miterlimit:4;stroke-dasharray:none;stroke-dashoffset:0;stroke-opacity:1"
         id="circle5725"
         cx="-305.12051"
         cy="-592.94055"
         r="18.827097"
         transform="scale(1,-1)" /><circle
         transform="scale(1,-1)"
         r="21.8244"
         cy="-592.94055"
         cx="-305.12051"
         id="circle5727"
         style="opacity:1;fill:none;fill-opacity:1;stroke:#000000;stroke-width:2.03060007;stroke-miterlimit:4;stroke-dasharray:none;stroke-dashoffset:0;stroke-opacity:1" /></g><g
       transform="matrix(0.39155672,0,0,0.39155672,-491.90417,273.13938)"
       id="g7252"><g
         id="g284"><g
           clip-path="url(#clipPath288-3)"
           id="g286"><g
             transform="translate(165.3553,674.5712)"
             id="g292"><path
               inkscape:connector-curvature="0"
               id="path294"
               style="fill:#000000;fill-opacity:1;fill-rule:nonzero;stroke:none"
               d="m 0,0 c -0.07,0 -0.144,0.005 -0.225,0.009 -1.197,0.131 -2.069,1.231 -1.951,2.466 1.367,13.795 0.6,28.079 -2.327,43.679 -4.043,21.483 -19.106,39.132 -39.312,46.061 -1.142,0.394 -1.762,1.665 -1.38,2.842 0.383,1.175 1.609,1.815 2.761,1.42 C -20.739,89.037 -4.558,70.079 -0.218,47.005 2.797,30.967 3.578,16.252 2.17,2.018 2.061,0.86 1.109,0 0,0 m -124.638,4.771 c 6.125,9.284 5.339,13.469 4.431,18.312 -2.993,15.915 0.214,32.079 9.026,45.516 8.814,13.437 22.182,22.532 37.64,25.611 6.11,1.231 12.508,1.451 18.844,0.593 1.203,-0.146 2.295,0.705 2.447,1.934 0.158,1.231 -0.68,2.359 -1.879,2.521 -6.798,0.92 -13.682,0.685 -20.243,-0.638 -16.601,-3.309 -30.959,-13.078 -40.426,-27.51 -9.465,-14.43 -12.909,-31.791 -9.694,-48.883 0.814,-4.335 1.351,-7.195 -3.754,-14.933 -0.679,-1.027 -0.417,-2.426 0.58,-3.123 0.376,-0.262 0.801,-0.388 1.225,-0.388 0.694,0.002 1.379,0.346 1.803,0.988 m 4.431,-8.998 c 11.167,15.18 9.906,21.901 8.57,29.021 -0.45,2.381 -0.738,4.835 -0.86,7.301 -0.059,1.242 -1.066,2.194 -2.29,2.129 -1.203,-0.063 -2.131,-1.119 -2.069,-2.356 0.131,-2.673 0.445,-5.342 0.932,-7.927 1.244,-6.631 2.228,-11.869 -7.765,-25.453 -0.726,-0.987 -0.539,-2.399 0.424,-3.144 0.395,-0.308 0.858,-0.456 1.316,-0.456 0.659,-0.006 1.312,0.301 1.742,0.885 M -9.921,-15.771 c 3.517,13.622 4.689,27.504 3.594,42.439 -0.093,1.238 -1.14,2.159 -2.339,2.071 -1.205,-0.092 -2.106,-1.17 -2.014,-2.406 1.061,-14.427 -0.07,-27.822 -3.457,-40.947 -0.311,-1.197 0.385,-2.43 1.549,-2.749 0.188,-0.049 0.38,-0.074 0.563,-0.074 0.965,-0.002 1.847,0.662 2.104,1.666 m 0.417,51.898 c 1.192,0.188 2.011,1.336 1.825,2.563 -0.325,2.185 -0.688,4.384 -1.107,6.606 -4.958,26.378 -27.479,45.522 -53.553,45.522 -3.49,0 -6.985,-0.345 -10.379,-1.028 -14.31,-2.853 -26.687,-11.274 -34.848,-23.714 -4.353,-6.633 -7.23,-13.967 -8.553,-21.795 -0.207,-1.222 0.59,-2.386 1.777,-2.599 1.201,-0.214 2.318,0.606 2.526,1.828 1.216,7.202 3.863,13.947 7.867,20.052 7.508,11.445 18.894,19.192 32.063,21.818 3.126,0.627 6.337,0.946 9.547,0.946 23.987,0 44.707,-17.615 49.269,-41.884 0.405,-2.167 0.759,-4.31 1.076,-6.442 0.164,-1.109 1.096,-1.903 2.155,-1.903 0.111,0.003 0.222,0.012 0.335,0.03 m -23.445,31.766 c 0.768,0.957 0.635,2.374 -0.299,3.163 -8.19,6.945 -18.52,10.771 -29.091,10.771 -2.933,0 -5.869,-0.29 -8.722,-0.865 -3.493,-0.696 -6.915,-1.813 -10.17,-3.322 -1.098,-0.51 -1.589,-1.84 -1.093,-2.97 0.493,-1.13 1.783,-1.635 2.885,-1.125 2.947,1.366 6.047,2.376 9.212,3.007 2.58,0.519 5.234,0.782 7.888,0.782 9.559,0 18.906,-3.461 26.314,-9.744 0.407,-0.346 0.895,-0.514 1.386,-0.514 0.631,0 1.253,0.278 1.69,0.817 m 10.208,-94.665 c 8.531,22.147 10.24,44.504 5.383,70.361 -1.244,6.633 -3.806,12.792 -7.611,18.309 -0.698,1.011 -2.058,1.249 -3.044,0.53 -0.983,-0.719 -1.217,-2.12 -0.516,-3.134 3.442,-4.988 5.761,-10.561 6.884,-16.561 4.694,-24.976 3.056,-46.536 -5.153,-67.855 -0.443,-1.152 0.105,-2.459 1.227,-2.915 0.264,-0.108 0.532,-0.158 0.801,-0.158 0.868,0 1.692,0.537 2.029,1.423 m -92.232,14.835 c 14.241,18.505 13.87,27.975 11.908,38.432 -2.107,11.2 0.148,22.577 6.349,32.033 2.227,3.393 4.901,6.434 7.952,9.037 0.928,0.793 1.057,2.208 0.286,3.163 -0.77,0.954 -2.145,1.085 -3.073,0.294 -3.37,-2.875 -6.326,-6.233 -8.784,-9.98 -6.854,-10.449 -9.344,-23.022 -7.018,-35.396 1.808,-9.621 2.074,-17.748 -11.042,-34.79 -0.749,-0.975 -0.59,-2.385 0.358,-3.156 0.401,-0.328 0.877,-0.485 1.353,-0.485 0.644,-0.003 1.281,0.289 1.711,0.848 m 5.968,-6.711 c 5.78,7.37 9.799,13.911 12.281,19.989 0.467,1.146 -0.055,2.462 -1.168,2.943 -1.116,0.479 -2.39,-0.056 -2.857,-1.197 -2.321,-5.686 -6.134,-11.872 -11.654,-18.914 -0.758,-0.965 -0.609,-2.381 0.327,-3.158 0.404,-0.333 0.888,-0.497 1.369,-0.497 0.639,0 1.272,0.286 1.702,0.834 m 84.143,17.718 c 2.153,13.534 1.805,27.539 -1.065,42.807 -3.373,17.936 -18.685,30.956 -36.407,30.956 -2.373,0 -4.75,-0.236 -7.064,-0.701 -9.733,-1.936 -18.148,-7.664 -23.696,-16.126 -5.551,-8.457 -7.568,-18.635 -5.684,-28.66 0.951,-5.063 1.207,-9.313 0.805,-13.378 -0.122,-1.236 0.751,-2.337 1.949,-2.465 1.218,-0.101 2.27,0.773 2.393,2.008 0.449,4.515 0.174,9.183 -0.86,14.691 -1.666,8.846 0.115,17.826 5.014,25.29 4.896,7.465 12.319,12.519 20.911,14.228 2.041,0.411 4.139,0.618 6.23,0.618 15.639,0 29.149,-11.487 32.124,-27.317 2.77,-14.737 3.108,-28.224 1.041,-41.227 -0.194,-1.225 0.61,-2.379 1.803,-2.577 0.12,-0.022 0.234,-0.031 0.354,-0.031 1.05,0.004 1.977,0.784 2.152,1.884 m -10.421,-32.525 c 3.266,6.725 5.896,13.659 7.819,20.611 0.328,1.193 -0.343,2.435 -1.502,2.775 -1.161,0.343 -2.368,-0.353 -2.696,-1.546 -1.846,-6.685 -4.374,-13.354 -7.521,-19.83 -0.539,-1.109 -0.105,-2.46 0.973,-3.014 0.317,-0.158 0.649,-0.234 0.976,-0.234 0.799,-0.005 1.567,0.448 1.951,1.238 m -67.058,8.989 c 15.679,19.888 20.128,34.628 16.417,54.382 -1.22,6.487 0.085,13.073 3.678,18.545 3.593,5.474 9.037,9.178 15.335,10.436 2.152,0.433 4.385,0.541 6.547,0.364 1.19,-0.099 2.256,0.822 2.351,2.057 0.099,1.236 -0.796,2.321 -1.999,2.42 -2.556,0.213 -5.193,0.078 -7.733,-0.429 -7.441,-1.483 -13.876,-5.863 -18.12,-12.33 -4.243,-6.465 -5.787,-14.248 -4.346,-21.912 3.429,-18.255 -0.777,-31.996 -15.52,-50.696 -0.759,-0.965 -0.617,-2.381 0.319,-3.158 0.404,-0.337 0.891,-0.506 1.373,-0.506 0.638,-0.004 1.266,0.279 1.698,0.827 m 55.169,-12.608 c 13.932,24.572 17.962,49.117 12.675,77.244 -1.552,8.246 -6.5,15.421 -13.571,19.679 -1.038,0.629 -2.376,0.27 -2.983,-0.801 -0.609,-1.072 -0.26,-2.447 0.779,-3.073 5.988,-3.608 10.174,-9.68 11.491,-16.659 5.07,-26.995 1.211,-50.549 -12.159,-74.125 -0.605,-1.075 -0.253,-2.449 0.784,-3.072 0.345,-0.211 0.724,-0.307 1.1,-0.307 0.747,0 1.477,0.393 1.884,1.114 m -11.1,-1.352 c 9.482,15.025 14.924,29.764 16.633,45.062 0.135,1.233 -0.721,2.347 -1.918,2.486 -1.204,0.14 -2.281,-0.743 -2.417,-1.974 -1.632,-14.59 -6.854,-28.696 -15.961,-43.125 -0.657,-1.043 -0.369,-2.434 0.642,-3.11 0.369,-0.245 0.782,-0.361 1.187,-0.361 0.714,0 1.419,0.359 1.834,1.022 m 15.083,55.134 c 1.207,0 2.168,0.975 2.15,2.21 -0.093,6.324 -0.773,12.856 -2.034,19.54 -1.786,9.498 -9.886,16.389 -19.27,16.389 -1.255,0 -2.517,-0.126 -3.748,-0.371 -5.153,-1.028 -9.608,-4.061 -12.547,-8.538 -1.41,-2.152 -2.394,-4.528 -2.925,-7.064 -0.253,-1.213 0.496,-2.408 1.675,-2.669 1.183,-0.254 2.34,0.513 2.593,1.723 0.412,1.975 1.181,3.828 2.277,5.501 2.283,3.482 5.749,5.845 9.759,6.645 0.958,0.191 1.94,0.296 2.916,0.296 7.295,0 13.597,-5.346 14.985,-12.732 1.207,-6.428 1.864,-12.727 1.954,-18.787 0.017,-1.229 0.988,-2.145 2.182,-2.145 0.009,0.002 0.023,0.002 0.033,0.002 m -51.798,-46.095 c 15.655,20.11 20.984,36.4 18.386,56.221 -0.162,1.233 -1.268,2.08 -2.456,1.925 -1.194,-0.166 -2.032,-1.296 -1.87,-2.527 2.453,-18.709 -2.445,-33.518 -17.465,-52.814 -0.755,-0.97 -0.602,-2.386 0.338,-3.156 0.402,-0.332 0.884,-0.494 1.365,-0.494 0.637,0.002 1.272,0.285 1.702,0.845 m 8.077,-3.981 c 6.55,8.648 11.287,16.67 14.478,24.53 0.465,1.145 -0.061,2.461 -1.174,2.939 -1.118,0.484 -2.392,-0.058 -2.855,-1.206 -3.039,-7.484 -7.583,-15.171 -13.892,-23.498 -0.742,-0.979 -0.572,-2.387 0.38,-3.149 0.399,-0.321 0.871,-0.476 1.34,-0.476 0.651,-0.005 1.293,0.292 1.723,0.86 m 18.353,-4.716 c 17.052,24.804 22.112,47.186 16.917,74.831 -0.555,2.951 -2.195,5.503 -4.613,7.185 -2.412,1.679 -5.317,2.287 -8.174,1.714 -2.862,-0.57 -5.338,-2.253 -6.97,-4.741 -1.631,-2.487 -2.224,-5.481 -1.67,-8.426 1.945,-10.353 1.951,-19.707 0.022,-28.595 -0.262,-1.211 0.478,-2.41 1.654,-2.68 1.183,-0.272 2.345,0.492 2.607,1.703 2.062,9.499 2.065,19.457 0.004,30.43 -0.332,1.77 0.024,3.567 1.002,5.061 0.978,1.493 2.462,2.502 4.182,2.846 1.718,0.341 3.455,-0.023 4.9,-1.027 1.454,-1.009 2.436,-2.54 2.775,-4.315 4.946,-26.326 0.103,-47.678 -16.197,-71.386 -0.696,-1.013 -0.462,-2.412 0.522,-3.133 0.384,-0.279 0.823,-0.413 1.26,-0.413 0.678,0 1.353,0.327 1.779,0.946 m -9.554,1.765 c 17.448,23.931 22.799,45.273 17.901,71.363 -0.23,1.217 -1.38,2.015 -2.559,1.779 -1.183,-0.236 -1.955,-1.413 -1.728,-2.633 4.71,-25.045 -0.249,-44.691 -17.105,-67.812 -0.725,-0.992 -0.528,-2.401 0.437,-3.142 0.393,-0.303 0.853,-0.449 1.307,-0.449 0.664,-0.007 1.319,0.303 1.747,0.894 m -51.646,52.074 c 1.172,0.29 1.895,1.503 1.615,2.71 -0.043,0.186 -0.087,0.343 -0.128,0.489 l 0.004,0 -0.458,2.68 c -2.917,15.182 -0.623,31.185 6.365,45.062 0.554,1.101 0.249,2.457 -0.821,3.028 -1.072,0.57 -2.163,0.139 -2.718,-0.961 -7.404,-14.702 -10.68,-31.652 -6.314,-47.756 l 0,-0.011 c 0,-1.7 -0.123,-2.325 0.113,-3.03 0.05,-0.153 -0.343,-0.317 -0.288,-0.553 0.24,-1.026 1.135,-1.723 2.122,-1.723 0.168,0.005 0.338,0.027 0.508,0.065 m 13.248,60.636 c 10.069,13.884 24.737,23.347 41.309,26.647 4.198,0.847 8.526,1.274 12.861,1.274 10.334,0 20.298,-2.384 29.626,-7.081 1.086,-0.545 2.394,-0.087 2.92,1.029 0.528,1.114 0.081,2.46 -1.002,3.006 -9.927,5.002 -20.537,7.538 -31.544,7.538 -4.616,0 -9.226,-0.456 -13.694,-1.357 -17.638,-3.513 -33.253,-13.587 -43.975,-28.37 -0.723,-0.995 -0.522,-2.401 0.443,-3.142 0.393,-0.301 0.849,-0.447 1.303,-0.447 0.668,0 1.325,0.312 1.753,0.903 M 9.67,34.512 c 0,4.715 -0.426,9.315 -1.305,14.064 l -0.343,1.826 -0.045,0 c -3.932,17.853 -14.245,33.985 -28.508,44.487 -0.982,0.725 -2.342,0.489 -3.048,-0.519 -0.701,-1.009 -0.478,-2.413 0.503,-3.134 C -9.229,81.038 0.662,65.175 4.069,47.715 l 0.089,-0.456 c 0.773,-4.301 1.146,-8.475 1.146,-12.747 0,-1.24 0.976,-2.246 2.184,-2.246 1.206,0 2.182,1.006 2.182,2.246" /></g><g
             transform="translate(101.2379,675.4261)"
             id="g296"><path
               inkscape:connector-curvature="0"
               id="path298"
               style="fill:#ffed00;fill-opacity:1;fill-rule:nonzero;stroke:none"
               d="M 0,0 -1.133,-3.998 -1.741,0.104 C -2.939,0.2 -4.124,0.345 -5.292,0.535 L -6.931,-3.287 -7.003,0.85 c -1.176,0.241 -2.333,0.528 -3.471,0.862 l -2.117,-3.59 0.463,4.111 c -1.133,0.381 -2.244,0.809 -3.331,1.28 l -2.566,-3.305 0.992,4.024 c -1.073,0.517 -2.119,1.076 -3.137,1.676 l -2.975,-2.97 1.505,3.876 c -0.995,0.642 -1.961,1.323 -2.894,2.042 l -3.339,-2.587 1.996,3.666 c -0.903,0.756 -1.773,1.548 -2.607,2.375 l -3.649,-2.163 2.454,3.396 c -0.798,0.858 -1.559,1.75 -2.282,2.672 l -3.897,-1.701 2.872,3.068 c -0.682,0.947 -1.323,1.925 -1.921,2.929 l -4.082,-1.213 3.241,2.692 c -0.553,1.023 -1.063,2.07 -1.527,3.142 l -4.202,-0.706 3.561,2.274 c -0.415,1.081 -0.785,2.183 -1.106,3.305 l -4.261,-0.19 3.829,1.825 c -0.27,1.12 -0.494,2.258 -0.667,3.412 l -4.257,0.329 4.04,1.347 c -0.122,1.141 -0.197,2.296 -0.221,3.463 l -4.186,0.846 4.186,0.846 c 0.024,1.167 0.099,2.322 0.221,3.463 l -4.04,1.346 4.257,0.33 c 0.173,1.154 0.397,2.292 0.667,3.412 l -3.829,1.825 4.261,-0.19 c 0.321,1.122 0.691,2.224 1.106,3.305 l -3.561,2.274 4.202,-0.706 c 0.464,1.071 0.974,2.119 1.527,3.142 l -3.241,2.691 4.082,-1.212 c 0.598,1.004 1.239,1.981 1.921,2.929 l -2.872,3.068 3.897,-1.701 c 0.723,0.922 1.484,1.813 2.282,2.672 l -2.454,3.395 3.649,-2.162 c 0.834,0.826 1.704,1.619 2.607,2.375 l -1.996,3.666 3.339,-2.587 c 0.933,0.718 1.899,1.4 2.894,2.042 l -1.505,3.876 2.975,-2.97 c 1.018,0.6 2.064,1.159 3.137,1.676 l -0.992,4.024 2.566,-3.305 c 1.087,0.471 2.198,0.898 3.331,1.28 l -0.463,4.111 2.117,-3.59 c 1.138,0.333 2.295,0.621 3.471,0.862 l 0.072,4.137 1.639,-3.823 c 1.168,0.191 2.353,0.335 3.551,0.431 L -1.133,86.072 0,82.074 c 0.593,0.024 1.19,0.036 1.788,0.036 0.6,0 1.196,-0.012 1.789,-0.036 l 1.133,3.998 0.608,-4.103 c 1.199,-0.096 2.383,-0.24 3.552,-0.431 l 1.638,3.823 0.073,-4.137 c 1.175,-0.241 2.332,-0.529 3.47,-0.862 l 2.117,3.59 -0.462,-4.111 c 1.133,-0.382 2.244,-0.809 3.331,-1.28 l 2.565,3.305 -0.991,-4.024 c 1.072,-0.517 2.118,-1.076 3.136,-1.676 l 2.976,2.97 -1.505,-3.876 c 0.995,-0.642 1.96,-1.324 2.893,-2.042 l 3.34,2.587 -1.996,-3.666 c 0.902,-0.756 1.772,-1.549 2.607,-2.375 l 3.649,2.162 -2.455,-3.395 c 0.798,-0.859 1.56,-1.75 2.282,-2.672 l 3.898,1.701 -2.872,-3.068 c 0.681,-0.948 1.322,-1.925 1.921,-2.929 l 4.082,1.212 -3.242,-2.691 c 0.553,-1.023 1.063,-2.071 1.527,-3.142 l 4.203,0.706 -3.562,-2.274 c 0.415,-1.081 0.785,-2.183 1.107,-3.305 l 4.261,0.19 -3.83,-1.825 c 0.271,-1.12 0.494,-2.258 0.668,-3.412 l 4.257,-0.33 -4.041,-1.346 c 0.122,-1.141 0.197,-2.296 0.221,-3.463 l 4.186,-0.846 -4.186,-0.846 c -0.024,-1.167 -0.099,-2.322 -0.221,-3.463 l 4.041,-1.347 -4.257,-0.329 C 43.525,33.898 43.302,32.76 43.031,31.64 l 3.83,-1.825 -4.261,0.19 C 42.278,28.883 41.908,27.781 41.493,26.7 l 3.562,-2.274 -4.203,0.706 C 40.388,24.06 39.878,23.013 39.325,21.99 l 3.242,-2.692 -4.082,1.213 c -0.599,-1.004 -1.24,-1.982 -1.921,-2.929 l 2.872,-3.068 -3.898,1.701 c -0.722,-0.922 -1.484,-1.814 -2.282,-2.672 l 2.455,-3.396 -3.649,2.163 C 31.227,11.483 30.357,10.691 29.455,9.935 l 1.996,-3.666 -3.34,2.587 C 27.178,8.137 26.213,7.456 25.218,6.814 l 1.505,-3.876 -2.976,2.97 C 22.729,5.308 21.683,4.749 20.611,4.232 L 21.602,0.208 19.037,3.513 C 17.95,3.042 16.839,2.614 15.706,2.233 l 0.462,-4.111 -2.117,3.59 C 12.913,1.378 11.756,1.091 10.581,0.85 L 10.508,-3.287 8.87,0.535 C 7.701,0.345 6.517,0.2 5.318,0.104 L 4.71,-3.998 3.577,0 C 2.984,-0.024 2.388,-0.036 1.788,-0.036 1.19,-0.036 0.593,-0.024 0,0 m 1.788,-3.278 -3.177,-4.659 -2.55,5.009 -3.754,-4.236 -1.883,5.278 -4.273,-3.745 -1.186,5.465 -4.722,-3.197 -0.47,5.566 -5.099,-2.597 0.253,5.579 -5.394,-1.957 0.972,5.505 -5.605,-1.287 1.676,5.344 -5.726,-0.596 2.353,5.098 -5.759,0.105 2.994,4.772 -5.699,0.804 3.587,4.37 -5.551,1.491 4.123,3.899 -5.314,2.154 4.595,3.367 -4.994,2.783 4.994,2.782 -4.595,3.368 5.314,2.154 -4.123,3.899 5.551,1.491 -3.587,4.37 5.699,0.804 -2.994,4.772 5.759,0.105 -2.353,5.098 5.726,-0.596 -1.676,5.344 5.605,-1.287 -0.972,5.505 5.394,-1.958 -0.253,5.58 5.099,-2.598 0.47,5.567 4.722,-3.197 1.186,5.465 4.273,-3.745 1.883,5.278 3.754,-4.236 2.55,5.008 3.177,-4.658 3.178,4.658 2.551,-5.008 3.754,4.236 1.883,-5.278 4.272,3.745 1.186,-5.465 4.723,3.197 0.47,-5.567 5.098,2.598 -0.253,-5.58 5.395,1.958 -0.973,-5.505 5.605,1.287 -1.676,-5.344 5.727,0.596 -2.354,-5.098 5.759,-0.105 -2.994,-4.772 5.7,-0.804 -3.587,-4.37 5.551,-1.491 -4.124,-3.899 5.314,-2.154 -4.595,-3.368 4.994,-2.782 -4.994,-2.783 4.595,-3.367 -5.314,-2.154 4.124,-3.899 -5.551,-1.491 3.587,-4.37 -5.7,-0.804 2.994,-4.772 -5.759,-0.105 2.354,-5.098 -5.727,0.596 1.676,-5.344 -5.605,1.287 0.973,-5.505 -5.395,1.957 0.253,-5.579 -5.098,2.597 -0.47,-5.566 -4.723,3.197 -1.186,-5.465 -4.272,3.745 -1.883,-5.278 -3.754,4.236 -2.551,-5.009 -3.178,4.659 z m 0,11.634 c 18.614,0 33.703,14.632 33.703,32.681 0,18.049 -15.089,32.681 -33.703,32.681 -18.613,0 -33.702,-14.632 -33.702,-32.681 0,-18.049 15.089,-32.681 33.702,-32.681 m 0,1.304 c 17.871,0 32.358,14.048 32.358,31.377 0,17.329 -14.487,31.377 -32.358,31.377 -17.87,0 -32.357,-14.048 -32.357,-31.377 0,-17.329 14.487,-31.377 32.357,-31.377" /></g><g
             transform="translate(138.8226,716.4617)"
             id="g300"><path
               inkscape:connector-curvature="0"
               id="path302"
               style="fill:#ffffff;fill-opacity:1;fill-rule:nonzero;stroke:none"
               d="m 0,0 c 0,-19.067 -16.023,-34.532 -35.794,-34.532 -19.775,0 -35.798,15.465 -35.798,34.532 0,19.07 16.023,34.535 35.798,34.535 C -16.023,34.535 0,19.07 0,0" /></g><g
             transform="translate(138.8226,716.4617)"
             id="g304"><path
               inkscape:connector-curvature="0"
               id="path306"
               style="fill:none;stroke:#000000;stroke-width:7.86600018;stroke-linecap:butt;stroke-linejoin:miter;stroke-miterlimit:10;stroke-dasharray:none;stroke-opacity:1"
               d="m 0,0 c 0,-19.067 -16.023,-34.532 -35.794,-34.532 -19.775,0 -35.798,15.465 -35.798,34.532 0,19.07 16.023,34.535 35.798,34.535 C -16.023,34.535 0,19.07 0,0 Z" /></g><g
             transform="translate(101.7318,694.3942)"
             id="g308"><path
               inkscape:connector-curvature="0"
               id="path310"
               style="fill:#000000;fill-opacity:1;fill-rule:nonzero;stroke:none"
               d="m 0,0 c -11.808,0 -21.419,9.938 -21.419,22.16 0,12.229 9.611,22.16 21.419,22.16 5.632,0 10.949,-2.243 14.969,-6.306 L 10.273,33.555 C 7.488,36.356 3.852,37.905 0,37.905 c -8.194,0 -14.872,-7.062 -14.872,-15.745 0,-8.679 6.678,-15.738 14.872,-15.738 8.214,0 14.886,7.059 14.886,15.738 l 6.546,0 C 21.432,9.938 11.822,0 0,0" /></g></g></g><g
         transform="translate(123.4408,709.282)"
         id="g312"><path
           inkscape:connector-curvature="0"
           id="path314"
           style="fill:#000000;fill-opacity:1;fill-rule:nonzero;stroke:none"
           d="M 0,0 -3.247,5.438 -9.067,4.044 -11.19,8.197 -0.663,13.134 4.835,3.928 0,0 Z" /></g></g></g></svg>