<?xml version="1.0" encoding="UTF-8" standalone="no"?>
<!-- Created with Inkscape (http://www.inkscape.org/) -->

<svg
   xmlns:dc="http://purl.org/dc/elements/1.1/"
   xmlns:cc="http://creativecommons.org/ns#"
   xmlns:rdf="http://www.w3.org/1999/02/22-rdf-syntax-ns#"
   xmlns:svg="http://www.w3.org/2000/svg"
   xmlns="http://www.w3.org/2000/svg"
   xmlns:sodipodi="http://sodipodi.sourceforge.net/DTD/sodipodi-0.dtd"
   xmlns:inkscape="http://www.inkscape.org/namespaces/inkscape"
   id="svg2"
   version="1.1"
   inkscape:version="0.91 r"
   xml:space="preserve"
   width="246.48703"
   height="143.76906"
   viewBox="0 0 246.48703 143.76905"
   sodipodi:docname="agreement_1.svg"><metadata
     id="metadata8"><rdf:RDF><cc:Work
         rdf:about=""><dc:format>image/svg+xml</dc:format><dc:type
           rdf:resource="http://purl.org/dc/dcmitype/StillImage" /><dc:title /></cc:Work></rdf:RDF></metadata><defs
     id="defs6"><marker
       inkscape:stockid="Arrow1Mstart"
       orient="auto"
       refY="0"
       refX="0"
       id="Arrow1Mstart"
       style="overflow:visible"
       inkscape:isstock="true"><path
         id="path6046"
         d="M 0,0 5,-5 -12.5,0 5,5 0,0 Z"
         style="fill:#000000;fill-opacity:1;fill-rule:evenodd;stroke:#000000;stroke-width:1pt;stroke-opacity:1"
         transform="matrix(0.4,0,0,0.4,4,0)"
         inkscape:connector-curvature="0" /></marker><marker
       inkscape:isstock="true"
       style="overflow:visible"
       id="marker6636"
       refX="0"
       refY="0"
       orient="auto"
       inkscape:stockid="Arrow1Mend"><path
         transform="matrix(-0.4,0,0,-0.4,-4,0)"
         style="fill:#000000;fill-opacity:1;fill-rule:evenodd;stroke:#000000;stroke-width:1pt;stroke-opacity:1"
         d="M 0,0 5,-5 -12.5,0 5,5 0,0 Z"
         id="path6638"
         inkscape:connector-curvature="0" /></marker><marker
       inkscape:stockid="Arrow1Mend"
       orient="auto"
       refY="0"
       refX="0"
       id="Arrow1Mend"
       style="overflow:visible"
       inkscape:isstock="true"
       inkscape:collect="always"><path
         id="path6049"
         d="M 0,0 5,-5 -12.5,0 5,5 0,0 Z"
         style="fill:#000000;fill-opacity:1;fill-rule:evenodd;stroke:#000000;stroke-width:1pt;stroke-opacity:1"
         transform="matrix(-0.4,0,0,-0.4,-4,0)"
         inkscape:connector-curvature="0" /></marker></defs><sodipodi:namedview
     pagecolor="#ffffff"
     bordercolor="#666666"
     borderopacity="1"
     objecttolerance="10"
     gridtolerance="10"
     guidetolerance="10"
     inkscape:pageopacity="0"
     inkscape:pageshadow="2"
     inkscape:window-width="1920"
     inkscape:window-height="1051"
     id="namedview4"
     showgrid="false"
     inkscape:zoom="4.648697"
     inkscape:cx="96.544517"
     inkscape:cy="86.198101"
     inkscape:window-x="0"
     inkscape:window-y="0"
     inkscape:window-maximized="1"
     inkscape:current-layer="g10"
     inkscape:snap-global="false"
     fit-margin-top="0"
     fit-margin-left="0"
     fit-margin-right="0"
     fit-margin-bottom="0" /><g
     id="g10"
     inkscape:groupmode="layer"
     inkscape:label="protocolos_GRRR"
     transform="matrix(1.25,0,0,-1.25,671.10051,1358.747)"><path
       style="fill:none;fill-rule:evenodd;stroke:#000000;stroke-width:0.80000001px;stroke-linecap:butt;stroke-linejoin:miter;stroke-opacity:1;marker-end:url(#Arrow1Mend)"
       d="m -487.26303,1062.2263 88.28239,0"
       id="path6314"
       inkscape:connector-curvature="0" /><path
       inkscape:connector-curvature="0"
       id="path6634"
       d="m -486.49902,993.49215 88.28239,0"
       style="fill:none;fill-rule:evenodd;stroke:#000000;stroke-width:0.80000001px;stroke-linecap:butt;stroke-linejoin:miter;stroke-opacity:1;marker-start:url(#Arrow1Mstart);marker-end:url(#marker6636)" /><g
       id="g5625"
       transform="matrix(0.94725681,0,0,0.94725681,-216.53231,501.17956)"><path
         inkscape:connector-curvature="0"
         id="path5627"
         d="m -297.333,600.3023 a 2.9813285,2.9813285 0 0 1 -2.98125,-2.98125 2.9813285,2.9813285 0 0 1 2.98125,-2.98125 2.9813285,2.9813285 0 0 1 2.98124,2.98125 2.9813285,2.9813285 0 0 1 -2.98124,2.98125 z m -12.28125,-2.19375 a 2.5370302,2.5370302 0 0 1 -2.53751,-2.5375 2.5370302,2.5370302 0 0 1 2.53751,-2.5375 2.5370302,2.5370302 0 0 1 2.53749,2.5375 2.5370302,2.5370302 0 0 1 -2.53749,2.5375 z m 5.71093,-2.55625 a 2.0196104,2.0196104 0 0 1 -2.02031,-2.01875 2.0196104,2.0196104 0 0 1 2.02031,-2.02032 2.0196104,2.0196104 0 0 1 2.01876,2.02032 2.0196104,2.0196104 0 0 1 -2.01876,2.01875 z m -11.49062,-1.71875 a 1.6714779,1.6714779 0 0 1 -1.67187,-1.67188 1.6714779,1.6714779 0 0 1 1.67187,-1.67187 1.6714779,1.6714779 0 0 1 1.67031,1.67187 1.6714779,1.6714779 0 0 1 -1.67031,1.67188 z m 18.0625,-0.22344 a 5.6584406,6.5710917 0 0 1 -4.8,-3.09688 3.8331389,4.4513867 0 0 1 -1.77188,0.50625 3.8331389,4.4513867 0 0 1 -1.99062,-0.65468 4.815181,5.5918226 0 0 1 -3.72031,2.04843 4.815181,5.5918226 0 0 1 -4.18438,-2.8375 3.1723976,3.6840743 0 0 1 -1.59531,0.50469 3.1723976,3.6840743 0 0 1 -3.17344,-3.68281 3.1723976,3.6840743 0 0 1 0.0828,-0.81875 l 6.17968,0 7.38125,0 4.75313,0 8.35,0 a 5.6584406,6.5710917 0 0 1 0.14687,1.46094 5.6584406,6.5710917 0 0 1 -5.65781,6.57031 z"
         style="opacity:1;fill:#000000;fill-opacity:1;stroke:none;stroke-width:1.60000002;stroke-miterlimit:4;stroke-dasharray:none;stroke-dashoffset:0;stroke-opacity:1" /><circle
         transform="scale(1,-1)"
         r="18.827097"
         cy="-592.94055"
         cx="-305.12051"
         id="circle5629"
         style="opacity:1;fill:none;fill-opacity:1;stroke:#000000;stroke-width:1.20000005;stroke-miterlimit:4;stroke-dasharray:none;stroke-dashoffset:0;stroke-opacity:1" /><circle
         style="opacity:1;fill:none;fill-opacity:1;stroke:#000000;stroke-width:2.03060007;stroke-miterlimit:4;stroke-dasharray:none;stroke-dashoffset:0;stroke-opacity:1"
         id="circle5631"
         cx="-305.12051"
         cy="-592.94055"
         r="21.8244"
         transform="scale(1,-1)" /></g><g
       transform="matrix(0.94725681,0,0,0.94725681,-90.561528,501.17956)"
       id="g5623"><path
         style="opacity:1;fill:#000000;fill-opacity:1;stroke:none;stroke-width:1.60000002;stroke-miterlimit:4;stroke-dasharray:none;stroke-dashoffset:0;stroke-opacity:1"
         d="m -297.333,600.3023 a 2.9813285,2.9813285 0 0 1 -2.98125,-2.98125 2.9813285,2.9813285 0 0 1 2.98125,-2.98125 2.9813285,2.9813285 0 0 1 2.98124,2.98125 2.9813285,2.9813285 0 0 1 -2.98124,2.98125 z m -12.28125,-2.19375 a 2.5370302,2.5370302 0 0 1 -2.53751,-2.5375 2.5370302,2.5370302 0 0 1 2.53751,-2.5375 2.5370302,2.5370302 0 0 1 2.53749,2.5375 2.5370302,2.5370302 0 0 1 -2.53749,2.5375 z m 5.71093,-2.55625 a 2.0196104,2.0196104 0 0 1 -2.02031,-2.01875 2.0196104,2.0196104 0 0 1 2.02031,-2.02032 2.0196104,2.0196104 0 0 1 2.01876,2.02032 2.0196104,2.0196104 0 0 1 -2.01876,2.01875 z m -11.49062,-1.71875 a 1.6714779,1.6714779 0 0 1 -1.67187,-1.67188 1.6714779,1.6714779 0 0 1 1.67187,-1.67187 1.6714779,1.6714779 0 0 1 1.67031,1.67187 1.6714779,1.6714779 0 0 1 -1.67031,1.67188 z m 18.0625,-0.22344 a 5.6584406,6.5710917 0 0 1 -4.8,-3.09688 3.8331389,4.4513867 0 0 1 -1.77188,0.50625 3.8331389,4.4513867 0 0 1 -1.99062,-0.65468 4.815181,5.5918226 0 0 1 -3.72031,2.04843 4.815181,5.5918226 0 0 1 -4.18438,-2.8375 3.1723976,3.6840743 0 0 1 -1.59531,0.50469 3.1723976,3.6840743 0 0 1 -3.17344,-3.68281 3.1723976,3.6840743 0 0 1 0.0828,-0.81875 l 6.17968,0 7.38125,0 4.75313,0 8.35,0 a 5.6584406,6.5710917 0 0 1 0.14687,1.46094 5.6584406,6.5710917 0 0 1 -5.65781,6.57031 z"
         id="path5625"
         inkscape:connector-curvature="0" /><circle
         style="opacity:1;fill:none;fill-opacity:1;stroke:#000000;stroke-width:1.20000005;stroke-miterlimit:4;stroke-dasharray:none;stroke-dashoffset:0;stroke-opacity:1"
         id="circle5627"
         cx="-305.12051"
         cy="-592.94055"
         r="18.827097"
         transform="scale(1,-1)" /><circle
         transform="scale(1,-1)"
         r="21.8244"
         cy="-592.94055"
         cx="-305.12051"
         id="circle5630"
         style="opacity:1;fill:none;fill-opacity:1;stroke:#000000;stroke-width:2.03060007;stroke-miterlimit:4;stroke-dasharray:none;stroke-dashoffset:0;stroke-opacity:1" /></g><g
       transform="matrix(0.94725681,0,0,0.94725681,-216.53231,433.20352)"
       id="g5632"><path
         style="opacity:1;fill:#000000;fill-opacity:1;stroke:none;stroke-width:1.60000002;stroke-miterlimit:4;stroke-dasharray:none;stroke-dashoffset:0;stroke-opacity:1"
         d="m -297.333,600.3023 a 2.9813285,2.9813285 0 0 1 -2.98125,-2.98125 2.9813285,2.9813285 0 0 1 2.98125,-2.98125 2.9813285,2.9813285 0 0 1 2.98124,2.98125 2.9813285,2.9813285 0 0 1 -2.98124,2.98125 z m -12.28125,-2.19375 a 2.5370302,2.5370302 0 0 1 -2.53751,-2.5375 2.5370302,2.5370302 0 0 1 2.53751,-2.5375 2.5370302,2.5370302 0 0 1 2.53749,2.5375 2.5370302,2.5370302 0 0 1 -2.53749,2.5375 z m 5.71093,-2.55625 a 2.0196104,2.0196104 0 0 1 -2.02031,-2.01875 2.0196104,2.0196104 0 0 1 2.02031,-2.02032 2.0196104,2.0196104 0 0 1 2.01876,2.02032 2.0196104,2.0196104 0 0 1 -2.01876,2.01875 z m -11.49062,-1.71875 a 1.6714779,1.6714779 0 0 1 -1.67187,-1.67188 1.6714779,1.6714779 0 0 1 1.67187,-1.67187 1.6714779,1.6714779 0 0 1 1.67031,1.67187 1.6714779,1.6714779 0 0 1 -1.67031,1.67188 z m 18.0625,-0.22344 a 5.6584406,6.5710917 0 0 1 -4.8,-3.09688 3.8331389,4.4513867 0 0 1 -1.77188,0.50625 3.8331389,4.4513867 0 0 1 -1.99062,-0.65468 4.815181,5.5918226 0 0 1 -3.72031,2.04843 4.815181,5.5918226 0 0 1 -4.18438,-2.8375 3.1723976,3.6840743 0 0 1 -1.59531,0.50469 3.1723976,3.6840743 0 0 1 -3.17344,-3.68281 3.1723976,3.6840743 0 0 1 0.0828,-0.81875 l 6.17968,0 7.38125,0 4.75313,0 8.35,0 a 5.6584406,6.5710917 0 0 1 0.14687,1.46094 5.6584406,6.5710917 0 0 1 -5.65781,6.57031 z"
         id="path5634"
         inkscape:connector-curvature="0" /><circle
         style="opacity:1;fill:none;fill-opacity:1;stroke:#000000;stroke-width:1.20000005;stroke-miterlimit:4;stroke-dasharray:none;stroke-dashoffset:0;stroke-opacity:1"
         id="circle5636"
         cx="-305.12051"
         cy="-592.94055"
         r="18.827097"
         transform="scale(1,-1)" /><circle
         transform="scale(1,-1)"
         r="21.8244"
         cy="-592.94055"
         cx="-305.12051"
         id="circle5638"
         style="opacity:1;fill:none;fill-opacity:1;stroke:#000000;stroke-width:2.03060007;stroke-miterlimit:4;stroke-dasharray:none;stroke-dashoffset:0;stroke-opacity:1" /></g><g
       id="g5640"
       transform="matrix(0.94725681,0,0,0.94725681,-90.561528,433.20352)"><path
         inkscape:connector-curvature="0"
         id="path5642"
         d="m -297.333,600.3023 a 2.9813285,2.9813285 0 0 1 -2.98125,-2.98125 2.9813285,2.9813285 0 0 1 2.98125,-2.98125 2.9813285,2.9813285 0 0 1 2.98124,2.98125 2.9813285,2.9813285 0 0 1 -2.98124,2.98125 z m -12.28125,-2.19375 a 2.5370302,2.5370302 0 0 1 -2.53751,-2.5375 2.5370302,2.5370302 0 0 1 2.53751,-2.5375 2.5370302,2.5370302 0 0 1 2.53749,2.5375 2.5370302,2.5370302 0 0 1 -2.53749,2.5375 z m 5.71093,-2.55625 a 2.0196104,2.0196104 0 0 1 -2.02031,-2.01875 2.0196104,2.0196104 0 0 1 2.02031,-2.02032 2.0196104,2.0196104 0 0 1 2.01876,2.02032 2.0196104,2.0196104 0 0 1 -2.01876,2.01875 z m -11.49062,-1.71875 a 1.6714779,1.6714779 0 0 1 -1.67187,-1.67188 1.6714779,1.6714779 0 0 1 1.67187,-1.67187 1.6714779,1.6714779 0 0 1 1.67031,1.67187 1.6714779,1.6714779 0 0 1 -1.67031,1.67188 z m 18.0625,-0.22344 a 5.6584406,6.5710917 0 0 1 -4.8,-3.09688 3.8331389,4.4513867 0 0 1 -1.77188,0.50625 3.8331389,4.4513867 0 0 1 -1.99062,-0.65468 4.815181,5.5918226 0 0 1 -3.72031,2.04843 4.815181,5.5918226 0 0 1 -4.18438,-2.8375 3.1723976,3.6840743 0 0 1 -1.59531,0.50469 3.1723976,3.6840743 0 0 1 -3.17344,-3.68281 3.1723976,3.6840743 0 0 1 0.0828,-0.81875 l 6.17968,0 7.38125,0 4.75313,0 8.35,0 a 5.6584406,6.5710917 0 0 1 0.14687,1.46094 5.6584406,6.5710917 0 0 1 -5.65781,6.57031 z"
         style="opacity:1;fill:#000000;fill-opacity:1;stroke:none;stroke-width:1.60000002;stroke-miterlimit:4;stroke-dasharray:none;stroke-dashoffset:0;stroke-opacity:1" /><circle
         transform="scale(1,-1)"
         r="18.827097"
         cy="-592.94055"
         cx="-305.12051"
         id="circle5644"
         style="opacity:1;fill:none;fill-opacity:1;stroke:#000000;stroke-width:1.20000005;stroke-miterlimit:4;stroke-dasharray:none;stroke-dashoffset:0;stroke-opacity:1" /><circle
         style="opacity:1;fill:none;fill-opacity:1;stroke:#000000;stroke-width:2.03060007;stroke-miterlimit:4;stroke-dasharray:none;stroke-dashoffset:0;stroke-opacity:1"
         id="circle5646"
         cx="-305.12051"
         cy="-592.94055"
         r="21.8244"
         transform="scale(1,-1)" /></g></g></svg>